<svg id="Capa_1" data-name="Capa 1" xmlns="http://www.w3.org/2000/svg" viewBox="0 0 46.19 29.67"><defs><style>.cls-1{fill:#c3e8fa;}</style></defs><path class="cls-1" d="M35.76,8.26A10.58,10.58,0,0,0,25.21,18.94,10.73,10.73,0,0,0,36,29.62h.21a13.51,13.51,0,0,1-8.47,3A2.67,2.67,0,0,0,25,35.26a2.47,2.47,0,0,0,2.42,2.67,18.8,18.8,0,0,0,18.74-19h0A10.47,10.47,0,0,0,35.76,8.26Z" transform="translate(0 -8.26)"/><path class="cls-1" d="M10.75,8.26A10.58,10.58,0,0,0,.19,18.94,10.73,10.73,0,0,0,10.93,29.62h.2a13.51,13.51,0,0,1-8.47,3A2.67,2.67,0,0,0,0,35.26a2.48,2.48,0,0,0,2.44,2.67,18.81,18.81,0,0,0,18.75-19h0A10.48,10.48,0,0,0,10.75,8.26Z" transform="translate(0 -8.26)"/></svg>