<?xml version="1.0" encoding="utf-8"?>
<!-- Generator: Adobe Illustrator 24.3.0, SVG Export Plug-In . SVG Version: 6.00 Build 0)  -->
<svg version="1.1" id="Capa_1" xmlns="http://www.w3.org/2000/svg" xmlns:xlink="http://www.w3.org/1999/xlink" x="0px" y="0px"
	 viewBox="0 0 46.2 46.2" style="enable-background:new 0 0 46.2 46.2;" xml:space="preserve">
<style type="text/css">
	.st0{fill:#C3E8FA;}
</style>
<g>
	<path class="st0" d="M10.2,38c5.9,0,10.6-4.8,10.6-10.7S15.9,16.7,10,16.7c-0.1,0-0.1,0-0.2,0c2.3-1.9,5.3-3,8.5-3
		c1.5,0,2.7-1.2,2.7-2.7s-0.9-2.7-2.4-2.7c-10.5,0-18.7,8.5-18.7,19l0,0C-0.2,33.3,4.3,38,10.2,38z"/>
	<path class="st0" d="M35.2,38c5.9,0,10.6-4.7,10.6-10.6S41,16.7,35.1,16.7c-0.1,0-0.1,0-0.2,0c2.3-1.9,5.3-3,8.5-3
		c1.5,0,2.7-1.2,2.7-2.7s-1-2.7-2.4-2.7c-10.5,0-18.8,8.5-18.8,19l0,0C24.8,33.3,29.4,38,35.2,38z"/>
</g>
</svg>
